<svg width="1384" height="421" viewBox="0 0 1384 421" fill="none" xmlns="http://www.w3.org/2000/svg">
<path d="M20.064 47.576C17.472 47.576 15.056 47.16 12.816 46.328C10.608 45.464 8.688 44.248 7.056 42.68C5.424 41.112 4.144 39.272 3.216 37.16C2.32 35.048 1.872 32.728 1.872 30.2C1.872 27.672 2.32 25.352 3.216 23.24C4.144 21.128 5.424 19.288 7.056 17.72C8.72 16.152 10.656 14.952 12.864 14.12C15.072 13.256 17.488 12.824 20.112 12.824C23.024 12.824 25.648 13.336 27.984 14.36C30.352 15.352 32.336 16.824 33.936 18.776L28.944 23.384C27.792 22.072 26.512 21.096 25.104 20.456C23.696 19.784 22.16 19.448 20.496 19.448C18.928 19.448 17.488 19.704 16.176 20.216C14.864 20.728 13.728 21.464 12.768 22.424C11.808 23.384 11.056 24.52 10.512 25.832C10 27.144 9.744 28.6 9.744 30.2C9.744 31.8 10 33.256 10.512 34.568C11.056 35.88 11.808 37.016 12.768 37.976C13.728 38.936 14.864 39.672 16.176 40.184C17.488 40.696 18.928 40.952 20.496 40.952C22.16 40.952 23.696 40.632 25.104 39.992C26.512 39.32 27.792 38.312 28.944 36.968L33.936 41.576C32.336 43.528 30.352 45.016 27.984 46.04C25.648 47.064 23.008 47.576 20.064 47.576ZM50.0565 47.384C47.3045 47.384 44.8565 46.808 42.7125 45.656C40.6005 44.504 38.9205 42.936 37.6725 40.952C36.4565 38.936 35.8485 36.648 35.8485 34.088C35.8485 31.496 36.4565 29.208 37.6725 27.224C38.9205 25.208 40.6005 23.64 42.7125 22.52C44.8565 21.368 47.3045 20.792 50.0565 20.792C52.7765 20.792 55.2085 21.368 57.3525 22.52C59.4965 23.64 61.1765 25.192 62.3925 27.176C63.6085 29.16 64.2165 31.464 64.2165 34.088C64.2165 36.648 63.6085 38.936 62.3925 40.952C61.1765 42.936 59.4965 44.504 57.3525 45.656C55.2085 46.808 52.7765 47.384 50.0565 47.384ZM50.0565 41.24C51.3045 41.24 52.4245 40.952 53.4165 40.376C54.4085 39.8 55.1925 38.984 55.7685 37.928C56.3445 36.84 56.6325 35.56 56.6325 34.088C56.6325 32.584 56.3445 31.304 55.7685 30.248C55.1925 29.192 54.4085 28.376 53.4165 27.8C52.4245 27.224 51.3045 26.936 50.0565 26.936C48.8085 26.936 47.6885 27.224 46.6965 27.8C45.7045 28.376 44.9045 29.192 44.2965 30.248C43.7205 31.304 43.4325 32.584 43.4325 34.088C43.4325 35.56 43.7205 36.84 44.2965 37.928C44.9045 38.984 45.7045 39.8 46.6965 40.376C47.6885 40.952 48.8085 41.24 50.0565 41.24ZM84.9176 20.792C86.9656 20.792 88.7896 21.208 90.3896 22.04C92.0216 22.84 93.3016 24.088 94.2296 25.784C95.1576 27.448 95.6216 29.592 95.6216 32.216V47H88.1336V33.368C88.1336 31.288 87.6696 29.752 86.7416 28.76C85.8456 27.768 84.5656 27.272 82.9016 27.272C81.7176 27.272 80.6456 27.528 79.6856 28.04C78.7576 28.52 78.0216 29.272 77.4776 30.296C76.9656 31.32 76.7096 32.632 76.7096 34.232V47H69.2216V21.176H76.3736V28.328L75.0296 26.168C75.9576 24.44 77.2856 23.112 79.0136 22.184C80.7416 21.256 82.7096 20.792 84.9176 20.792ZM112.969 47.384C109.929 47.384 107.561 46.616 105.865 45.08C104.169 43.512 103.321 41.192 103.321 38.12V15.464H110.809V38.024C110.809 39.112 111.097 39.96 111.673 40.568C112.249 41.144 113.033 41.432 114.025 41.432C115.209 41.432 116.217 41.112 117.049 40.472L119.065 45.752C118.297 46.296 117.369 46.712 116.281 47C115.225 47.256 114.121 47.384 112.969 47.384ZM99.3371 27.512V21.752H117.241V27.512H99.3371ZM139.109 47V41.96L138.629 40.856V31.832C138.629 30.232 138.133 28.984 137.141 28.088C136.181 27.192 134.693 26.744 132.677 26.744C131.301 26.744 129.941 26.968 128.597 27.416C127.285 27.832 126.165 28.408 125.237 29.144L122.549 23.912C123.957 22.92 125.653 22.152 127.637 21.608C129.621 21.064 131.637 20.792 133.685 20.792C137.621 20.792 140.677 21.72 142.853 23.576C145.029 25.432 146.117 28.328 146.117 32.264V47H139.109ZM131.237 47.384C129.221 47.384 127.493 47.048 126.053 46.376C124.613 45.672 123.509 44.728 122.741 43.544C121.973 42.36 121.589 41.032 121.589 39.56C121.589 38.024 121.957 36.68 122.693 35.528C123.461 34.376 124.661 33.48 126.293 32.84C127.925 32.168 130.053 31.832 132.677 31.832H139.541V36.2H133.493C131.733 36.2 130.517 36.488 129.845 37.064C129.205 37.64 128.885 38.36 128.885 39.224C128.885 40.184 129.253 40.952 129.989 41.528C130.757 42.072 131.797 42.344 133.109 42.344C134.357 42.344 135.477 42.056 136.469 41.48C137.461 40.872 138.181 39.992 138.629 38.84L139.781 42.296C139.237 43.96 138.245 45.224 136.805 46.088C135.365 46.952 133.509 47.384 131.237 47.384ZM165.561 47.384C162.777 47.384 160.297 46.824 158.121 45.704C155.945 44.552 154.233 42.968 152.985 40.952C151.769 38.936 151.161 36.648 151.161 34.088C151.161 31.496 151.769 29.208 152.985 27.224C154.233 25.208 155.945 23.64 158.121 22.52C160.297 21.368 162.777 20.792 165.561 20.792C168.281 20.792 170.649 21.368 172.665 22.52C174.681 23.64 176.169 25.256 177.129 27.368L171.321 30.488C170.649 29.272 169.801 28.376 168.777 27.8C167.785 27.224 166.697 26.936 165.513 26.936C164.233 26.936 163.081 27.224 162.057 27.8C161.033 28.376 160.217 29.192 159.609 30.248C159.033 31.304 158.745 32.584 158.745 34.088C158.745 35.592 159.033 36.872 159.609 37.928C160.217 38.984 161.033 39.8 162.057 40.376C163.081 40.952 164.233 41.24 165.513 41.24C166.697 41.24 167.785 40.968 168.777 40.424C169.801 39.848 170.649 38.936 171.321 37.688L177.129 40.856C176.169 42.936 174.681 44.552 172.665 45.704C170.649 46.824 168.281 47.384 165.561 47.384ZM192.375 47.384C189.335 47.384 186.967 46.616 185.271 45.08C183.575 43.512 182.727 41.192 182.727 38.12V15.464H190.215V38.024C190.215 39.112 190.503 39.96 191.079 40.568C191.655 41.144 192.439 41.432 193.431 41.432C194.615 41.432 195.623 41.112 196.455 40.472L198.471 45.752C197.703 46.296 196.775 46.712 195.687 47C194.631 47.256 193.527 47.384 192.375 47.384ZM178.743 27.512V21.752H196.647V27.512H178.743ZM227.165 47.384C225.021 47.384 223.101 46.968 221.405 46.136C219.741 45.304 218.445 44.04 217.517 42.344C216.589 40.616 216.125 38.424 216.125 35.768V21.176H223.613V34.664C223.613 36.808 224.061 38.392 224.957 39.416C225.885 40.408 227.181 40.904 228.845 40.904C229.997 40.904 231.021 40.664 231.917 40.184C232.813 39.672 233.517 38.904 234.029 37.88C234.541 36.824 234.797 35.512 234.797 33.944V21.176H242.285V47H235.181V39.896L236.477 41.96C235.613 43.752 234.333 45.112 232.637 46.04C230.973 46.936 229.149 47.384 227.165 47.384ZM257.91 47.384C255.702 47.384 253.574 47.128 251.526 46.616C249.51 46.072 247.91 45.4 246.726 44.6L249.222 39.224C250.406 39.96 251.798 40.568 253.398 41.048C255.03 41.496 256.63 41.72 258.198 41.72C259.926 41.72 261.142 41.512 261.846 41.096C262.582 40.68 262.95 40.104 262.95 39.368C262.95 38.76 262.662 38.312 262.086 38.024C261.542 37.704 260.806 37.464 259.878 37.304C258.95 37.144 257.926 36.984 256.806 36.824C255.718 36.664 254.614 36.456 253.494 36.2C252.374 35.912 251.35 35.496 250.422 34.952C249.494 34.408 248.742 33.672 248.166 32.744C247.622 31.816 247.35 30.616 247.35 29.144C247.35 27.512 247.814 26.072 248.742 24.824C249.702 23.576 251.078 22.6 252.87 21.896C254.662 21.16 256.806 20.792 259.302 20.792C261.062 20.792 262.854 20.984 264.678 21.368C266.502 21.752 268.022 22.312 269.238 23.048L266.742 28.376C265.494 27.64 264.23 27.144 262.95 26.888C261.702 26.6 260.486 26.456 259.302 26.456C257.638 26.456 256.422 26.68 255.654 27.128C254.886 27.576 254.502 28.152 254.502 28.856C254.502 29.496 254.774 29.976 255.318 30.296C255.894 30.616 256.646 30.872 257.574 31.064C258.502 31.256 259.51 31.432 260.598 31.592C261.718 31.72 262.838 31.928 263.958 32.216C265.078 32.504 266.086 32.92 266.982 33.464C267.91 33.976 268.662 34.696 269.238 35.624C269.814 36.52 270.102 37.704 270.102 39.176C270.102 40.776 269.622 42.2 268.662 43.448C267.702 44.664 266.31 45.624 264.486 46.328C262.694 47.032 260.502 47.384 257.91 47.384Z" fill="#009C41"/>
<rect x="635" y="99" width="748" height="242" stroke="#009C41" stroke-width="2"/>
<rect x="1" y="99" width="498.777" height="52.9056" stroke="#009C41" stroke-width="2"/>
<path d="M13.4744 126.68H22.5704V127.784H13.4744V126.68ZM13.6184 135.2H12.3944V118.4H23.6264V119.504H13.6184V135.2ZM27.1511 135.2V122.672H28.3511V135.2H27.1511ZM27.7511 119.624C27.4791 119.624 27.2471 119.528 27.0551 119.336C26.8631 119.144 26.7671 118.92 26.7671 118.664C26.7671 118.392 26.8631 118.16 27.0551 117.968C27.2471 117.776 27.4791 117.68 27.7511 117.68C28.0391 117.68 28.2711 117.776 28.4471 117.968C28.6391 118.144 28.7351 118.368 28.7351 118.64C28.7351 118.912 28.6391 119.144 28.4471 119.336C28.2711 119.528 28.0391 119.624 27.7511 119.624ZM33.4089 135.2V122.672H34.5609V126.104L34.4409 125.72C34.7929 124.712 35.3849 123.936 36.2169 123.392C37.0489 122.848 38.0889 122.576 39.3369 122.576V123.752C39.2889 123.752 39.2409 123.752 39.1929 123.752C39.1449 123.736 39.0969 123.728 39.0489 123.728C37.6569 123.728 36.5689 124.168 35.7849 125.048C35.0009 125.912 34.6089 127.12 34.6089 128.672V135.2H33.4089ZM45.9519 135.296C44.9119 135.296 43.9359 135.144 43.0239 134.84C42.1279 134.536 41.4319 134.152 40.9359 133.688L41.4879 132.728C41.9679 133.144 42.6079 133.504 43.4079 133.808C44.2079 134.096 45.0719 134.24 45.9999 134.24C47.3119 134.24 48.2559 134.024 48.8319 133.592C49.4079 133.16 49.6959 132.592 49.6959 131.888C49.6959 131.376 49.5439 130.976 49.2399 130.688C48.9519 130.384 48.5599 130.152 48.0639 129.992C47.5679 129.832 47.0239 129.704 46.4319 129.608C45.8399 129.496 45.2479 129.376 44.6559 129.248C44.0639 129.12 43.5199 128.936 43.0239 128.696C42.5279 128.456 42.1279 128.128 41.8239 127.712C41.5359 127.28 41.3919 126.712 41.3919 126.008C41.3919 125.368 41.5679 124.792 41.9199 124.28C42.2719 123.768 42.7999 123.36 43.5039 123.056C44.2079 122.736 45.0879 122.576 46.1439 122.576C46.9279 122.576 47.7119 122.688 48.4959 122.912C49.2959 123.136 49.9439 123.432 50.4399 123.8L49.8879 124.76C49.3599 124.36 48.7679 124.072 48.1119 123.896C47.4559 123.72 46.7919 123.632 46.1199 123.632C44.9039 123.632 44.0079 123.856 43.4319 124.304C42.8719 124.752 42.5919 125.312 42.5919 125.984C42.5919 126.512 42.7359 126.936 43.0239 127.256C43.3279 127.56 43.7279 127.8 44.2239 127.976C44.7199 128.136 45.2639 128.272 45.8559 128.384C46.4479 128.48 47.0399 128.592 47.6319 128.72C48.2239 128.848 48.7679 129.032 49.2639 129.272C49.7599 129.496 50.1519 129.816 50.4399 130.232C50.7439 130.632 50.8959 131.176 50.8959 131.864C50.8959 132.552 50.7039 133.152 50.3199 133.664C49.9519 134.176 49.3999 134.576 48.6639 134.864C47.9279 135.152 47.0239 135.296 45.9519 135.296ZM57.8928 135.296C56.7888 135.296 55.9408 134.992 55.3488 134.384C54.7728 133.776 54.4848 132.944 54.4848 131.888V119.936H55.6848V131.768C55.6848 132.568 55.8848 133.184 56.2848 133.616C56.6848 134.048 57.2608 134.264 58.0128 134.264C58.7968 134.264 59.4448 134.032 59.9568 133.568L60.4608 134.408C60.1408 134.712 59.7488 134.936 59.2848 135.08C58.8368 135.224 58.3728 135.296 57.8928 135.296ZM52.1808 123.704V122.672H59.6688V123.704H52.1808ZM70.3554 135.2V118.4H71.3874L83.3634 133.688H82.8114V118.4H84.0354V135.2H83.0274L71.0274 119.912H71.5794V135.2H70.3554ZM97.4142 135.2V132.344L97.3662 131.912V127.208C97.3662 126.04 97.0462 125.152 96.4062 124.544C95.7822 123.936 94.8622 123.632 93.6462 123.632C92.7822 123.632 91.9742 123.784 91.2222 124.088C90.4862 124.376 89.8542 124.752 89.3262 125.216L88.7262 124.352C89.3502 123.792 90.1022 123.36 90.9822 123.056C91.8622 122.736 92.7822 122.576 93.7422 122.576C95.2942 122.576 96.4862 122.968 97.3182 123.752C98.1502 124.536 98.5662 125.704 98.5662 127.256V135.2H97.4142ZM92.9022 135.296C91.9742 135.296 91.1662 135.152 90.4782 134.864C89.8062 134.56 89.2862 134.136 88.9182 133.592C88.5662 133.048 88.3902 132.424 88.3902 131.72C88.3902 131.08 88.5342 130.504 88.8222 129.992C89.1262 129.464 89.6222 129.04 90.3102 128.72C90.9982 128.384 91.9182 128.216 93.0702 128.216H97.6782V129.152H93.0942C91.7982 129.152 90.8862 129.392 90.3582 129.872C89.8462 130.352 89.5902 130.952 89.5902 131.672C89.5902 132.472 89.8942 133.112 90.5022 133.592C91.1102 134.072 91.9662 134.312 93.0702 134.312C94.1262 134.312 95.0142 134.072 95.7342 133.592C96.4702 133.112 97.0142 132.416 97.3662 131.504L97.7022 132.32C97.3662 133.232 96.7902 133.96 95.9742 134.504C95.1742 135.032 94.1502 135.296 92.9022 135.296ZM119.11 122.576C120.118 122.576 120.99 122.776 121.726 123.176C122.478 123.56 123.062 124.152 123.478 124.952C123.894 125.736 124.102 126.712 124.102 127.88V135.2H122.902V127.976C122.902 126.568 122.558 125.496 121.87 124.76C121.182 124.024 120.222 123.656 118.99 123.656C118.046 123.656 117.23 123.856 116.542 124.256C115.854 124.656 115.326 125.216 114.958 125.936C114.59 126.656 114.406 127.52 114.406 128.528V135.2H113.206V127.976C113.206 126.568 112.862 125.496 112.174 124.76C111.486 124.024 110.526 123.656 109.294 123.656C108.35 123.656 107.534 123.856 106.846 124.256C106.158 124.656 105.63 125.216 105.262 125.936C104.894 126.656 104.71 127.52 104.71 128.528V135.2H103.51V122.672H104.662V126.128L104.494 125.744C104.862 124.768 105.478 124 106.342 123.44C107.206 122.864 108.246 122.576 109.462 122.576C110.71 122.576 111.758 122.896 112.606 123.536C113.47 124.16 114.014 125.096 114.238 126.344L113.83 126.176C114.166 125.104 114.798 124.24 115.726 123.584C116.654 122.912 117.782 122.576 119.11 122.576ZM134.145 135.296C132.881 135.296 131.761 135.024 130.785 134.48C129.825 133.936 129.065 133.184 128.505 132.224C127.961 131.264 127.689 130.168 127.689 128.936C127.689 127.688 127.945 126.592 128.457 125.648C128.985 124.688 129.705 123.936 130.617 123.392C131.529 122.848 132.553 122.576 133.689 122.576C134.825 122.576 135.841 122.84 136.737 123.368C137.649 123.896 138.361 124.64 138.873 125.6C139.401 126.544 139.665 127.64 139.665 128.888C139.665 128.936 139.657 128.992 139.641 129.056C139.641 129.104 139.641 129.16 139.641 129.224H128.577V128.288H138.993L138.513 128.744C138.529 127.768 138.321 126.896 137.889 126.128C137.473 125.344 136.905 124.736 136.185 124.304C135.465 123.856 134.633 123.632 133.689 123.632C132.761 123.632 131.929 123.856 131.193 124.304C130.473 124.736 129.905 125.344 129.489 126.128C129.073 126.896 128.865 127.776 128.865 128.768V128.984C128.865 130.008 129.089 130.92 129.537 131.72C130.001 132.504 130.633 133.12 131.433 133.568C132.233 134 133.145 134.216 134.169 134.216C134.969 134.216 135.713 134.072 136.401 133.784C137.105 133.496 137.697 133.056 138.177 132.464L138.873 133.256C138.329 133.928 137.641 134.44 136.809 134.792C135.993 135.128 135.105 135.296 134.145 135.296Z" fill="#009C41"/>
<rect x="1" y="193.665" width="498.777" height="52.9056" stroke="#009C41" stroke-width="2"/>
<path d="M12.3944 229.865V213.065H13.6184V228.761H23.2904V229.865H12.3944ZM33.9455 229.865V227.009L33.8975 226.577V221.873C33.8975 220.705 33.5775 219.817 32.9375 219.209C32.3135 218.601 31.3935 218.297 30.1775 218.297C29.3135 218.297 28.5055 218.449 27.7535 218.753C27.0175 219.041 26.3855 219.417 25.8575 219.881L25.2575 219.017C25.8815 218.457 26.6335 218.025 27.5135 217.721C28.3935 217.401 29.3135 217.241 30.2735 217.241C31.8255 217.241 33.0175 217.633 33.8495 218.417C34.6815 219.201 35.0975 220.369 35.0975 221.921V229.865H33.9455ZM29.4335 229.961C28.5055 229.961 27.6975 229.817 27.0095 229.529C26.3375 229.225 25.8175 228.801 25.4495 228.257C25.0975 227.713 24.9215 227.089 24.9215 226.385C24.9215 225.745 25.0655 225.169 25.3535 224.657C25.6575 224.129 26.1535 223.705 26.8415 223.385C27.5295 223.049 28.4495 222.881 29.6015 222.881H34.2095V223.817H29.6255C28.3295 223.817 27.4175 224.057 26.8895 224.537C26.3775 225.017 26.1215 225.617 26.1215 226.337C26.1215 227.137 26.4255 227.777 27.0335 228.257C27.6415 228.737 28.4975 228.977 29.6015 228.977C30.6575 228.977 31.5455 228.737 32.2655 228.257C33.0015 227.777 33.5455 227.081 33.8975 226.169L34.2335 226.985C33.8975 227.897 33.3215 228.625 32.5055 229.169C31.7055 229.697 30.6815 229.961 29.4335 229.961ZM43.2097 229.961C42.1697 229.961 41.1937 229.809 40.2817 229.505C39.3857 229.201 38.6897 228.817 38.1937 228.353L38.7457 227.393C39.2257 227.809 39.8657 228.169 40.6657 228.473C41.4657 228.761 42.3297 228.905 43.2577 228.905C44.5697 228.905 45.5137 228.689 46.0897 228.257C46.6657 227.825 46.9537 227.257 46.9537 226.553C46.9537 226.041 46.8017 225.641 46.4977 225.353C46.2097 225.049 45.8177 224.817 45.3217 224.657C44.8257 224.497 44.2817 224.369 43.6897 224.273C43.0977 224.161 42.5057 224.041 41.9137 223.913C41.3217 223.785 40.7777 223.601 40.2817 223.361C39.7857 223.121 39.3857 222.793 39.0817 222.377C38.7937 221.945 38.6497 221.377 38.6497 220.673C38.6497 220.033 38.8257 219.457 39.1777 218.945C39.5297 218.433 40.0577 218.025 40.7617 217.721C41.4657 217.401 42.3457 217.241 43.4017 217.241C44.1857 217.241 44.9697 217.353 45.7537 217.577C46.5537 217.801 47.2017 218.097 47.6977 218.465L47.1457 219.425C46.6177 219.025 46.0257 218.737 45.3697 218.561C44.7137 218.385 44.0497 218.297 43.3777 218.297C42.1617 218.297 41.2657 218.521 40.6897 218.969C40.1297 219.417 39.8497 219.977 39.8497 220.649C39.8497 221.177 39.9937 221.601 40.2817 221.921C40.5857 222.225 40.9857 222.465 41.4817 222.641C41.9777 222.801 42.5217 222.937 43.1137 223.049C43.7057 223.145 44.2977 223.257 44.8897 223.385C45.4817 223.513 46.0257 223.697 46.5217 223.937C47.0177 224.161 47.4097 224.481 47.6977 224.897C48.0017 225.297 48.1537 225.841 48.1537 226.529C48.1537 227.217 47.9617 227.817 47.5777 228.329C47.2097 228.841 46.6577 229.241 45.9217 229.529C45.1857 229.817 44.2817 229.961 43.2097 229.961ZM55.1506 229.961C54.0466 229.961 53.1986 229.657 52.6066 229.049C52.0306 228.441 51.7426 227.609 51.7426 226.553V214.601H52.9426V226.433C52.9426 227.233 53.1426 227.849 53.5426 228.281C53.9426 228.713 54.5186 228.929 55.2706 228.929C56.0546 228.929 56.7026 228.697 57.2146 228.233L57.7186 229.073C57.3986 229.377 57.0066 229.601 56.5426 229.745C56.0946 229.889 55.6306 229.961 55.1506 229.961ZM49.4386 218.369V217.337H56.9266V218.369H49.4386ZM67.6132 229.865V213.065H68.6452L80.6212 228.353H80.0692V213.065H81.2932V229.865H80.2852L68.2852 214.577H68.8372V229.865H67.6132ZM94.6721 229.865V227.009L94.6241 226.577V221.873C94.6241 220.705 94.3041 219.817 93.6641 219.209C93.0401 218.601 92.1201 218.297 90.9041 218.297C90.0401 218.297 89.2321 218.449 88.4801 218.753C87.7441 219.041 87.1121 219.417 86.5841 219.881L85.9841 219.017C86.6081 218.457 87.3601 218.025 88.2401 217.721C89.1201 217.401 90.0401 217.241 91.0001 217.241C92.5521 217.241 93.7441 217.633 94.5761 218.417C95.4081 219.201 95.8241 220.369 95.8241 221.921V229.865H94.6721ZM90.1601 229.961C89.2321 229.961 88.4241 229.817 87.7361 229.529C87.0641 229.225 86.5441 228.801 86.1761 228.257C85.8241 227.713 85.6481 227.089 85.6481 226.385C85.6481 225.745 85.7921 225.169 86.0801 224.657C86.3841 224.129 86.8801 223.705 87.5681 223.385C88.2561 223.049 89.1761 222.881 90.3281 222.881H94.9361V223.817H90.3521C89.0561 223.817 88.1441 224.057 87.6161 224.537C87.1041 225.017 86.8481 225.617 86.8481 226.337C86.8481 227.137 87.1521 227.777 87.7601 228.257C88.3681 228.737 89.2241 228.977 90.3281 228.977C91.3841 228.977 92.2721 228.737 92.9921 228.257C93.7281 227.777 94.2721 227.081 94.6241 226.169L94.9601 226.985C94.6241 227.897 94.0481 228.625 93.2321 229.169C92.4321 229.697 91.4081 229.961 90.1601 229.961ZM116.368 217.241C117.376 217.241 118.248 217.441 118.984 217.841C119.736 218.225 120.32 218.817 120.736 219.617C121.152 220.401 121.36 221.377 121.36 222.545V229.865H120.16V222.641C120.16 221.233 119.816 220.161 119.128 219.425C118.44 218.689 117.48 218.321 116.248 218.321C115.304 218.321 114.488 218.521 113.8 218.921C113.112 219.321 112.584 219.881 112.216 220.601C111.848 221.321 111.664 222.185 111.664 223.193V229.865H110.464V222.641C110.464 221.233 110.12 220.161 109.432 219.425C108.744 218.689 107.784 218.321 106.552 218.321C105.608 218.321 104.792 218.521 104.104 218.921C103.416 219.321 102.888 219.881 102.52 220.601C102.152 221.321 101.968 222.185 101.968 223.193V229.865H100.768V217.337H101.92V220.793L101.752 220.409C102.12 219.433 102.736 218.665 103.6 218.105C104.464 217.529 105.504 217.241 106.72 217.241C107.968 217.241 109.016 217.561 109.864 218.201C110.728 218.825 111.272 219.761 111.496 221.009L111.088 220.841C111.424 219.769 112.056 218.905 112.984 218.249C113.912 217.577 115.04 217.241 116.368 217.241ZM131.403 229.961C130.139 229.961 129.019 229.689 128.043 229.145C127.083 228.601 126.323 227.849 125.763 226.889C125.219 225.929 124.947 224.833 124.947 223.601C124.947 222.353 125.203 221.257 125.715 220.313C126.243 219.353 126.963 218.601 127.875 218.057C128.787 217.513 129.811 217.241 130.947 217.241C132.083 217.241 133.099 217.505 133.995 218.033C134.907 218.561 135.619 219.305 136.131 220.265C136.659 221.209 136.923 222.305 136.923 223.553C136.923 223.601 136.915 223.657 136.899 223.721C136.899 223.769 136.899 223.825 136.899 223.889H125.835V222.953H136.251L135.771 223.409C135.787 222.433 135.579 221.561 135.147 220.793C134.731 220.009 134.163 219.401 133.443 218.969C132.723 218.521 131.891 218.297 130.947 218.297C130.019 218.297 129.187 218.521 128.451 218.969C127.731 219.401 127.163 220.009 126.747 220.793C126.331 221.561 126.123 222.441 126.123 223.433V223.649C126.123 224.673 126.347 225.585 126.795 226.385C127.259 227.169 127.891 227.785 128.691 228.233C129.491 228.665 130.403 228.881 131.427 228.881C132.227 228.881 132.971 228.737 133.659 228.449C134.363 228.161 134.955 227.721 135.435 227.129L136.131 227.921C135.587 228.593 134.899 229.105 134.067 229.457C133.251 229.793 132.363 229.961 131.403 229.961Z" fill="#009C41"/>
<path d="M651.928 130V113.2H652.96L660.76 126.664H660.208L667.984 113.2H668.992L669.016 130H667.816L667.792 115.048H668.128L660.76 127.768H660.16L652.768 115.048H653.128V130H651.928ZM679.577 130.096C678.313 130.096 677.193 129.824 676.217 129.28C675.257 128.736 674.497 127.984 673.937 127.024C673.393 126.064 673.121 124.968 673.121 123.736C673.121 122.488 673.377 121.392 673.889 120.448C674.417 119.488 675.137 118.736 676.049 118.192C676.961 117.648 677.985 117.376 679.121 117.376C680.257 117.376 681.273 117.64 682.169 118.168C683.081 118.696 683.793 119.44 684.305 120.4C684.833 121.344 685.097 122.44 685.097 123.688C685.097 123.736 685.089 123.792 685.073 123.856C685.073 123.904 685.073 123.96 685.073 124.024H674.009V123.088H684.425L683.945 123.544C683.961 122.568 683.753 121.696 683.321 120.928C682.905 120.144 682.337 119.536 681.617 119.104C680.897 118.656 680.065 118.432 679.121 118.432C678.193 118.432 677.361 118.656 676.625 119.104C675.905 119.536 675.337 120.144 674.921 120.928C674.505 121.696 674.297 122.576 674.297 123.568V123.784C674.297 124.808 674.521 125.72 674.969 126.52C675.433 127.304 676.065 127.92 676.865 128.368C677.665 128.8 678.577 129.016 679.601 129.016C680.401 129.016 681.145 128.872 681.833 128.584C682.537 128.296 683.129 127.856 683.609 127.264L684.305 128.056C683.761 128.728 683.073 129.24 682.241 129.592C681.425 129.928 680.537 130.096 679.577 130.096ZM691.978 130.096C690.938 130.096 689.962 129.944 689.05 129.64C688.154 129.336 687.458 128.952 686.962 128.488L687.514 127.528C687.994 127.944 688.634 128.304 689.434 128.608C690.234 128.896 691.098 129.04 692.026 129.04C693.338 129.04 694.282 128.824 694.858 128.392C695.434 127.96 695.722 127.392 695.722 126.688C695.722 126.176 695.57 125.776 695.266 125.488C694.978 125.184 694.586 124.952 694.09 124.792C693.594 124.632 693.05 124.504 692.458 124.408C691.866 124.296 691.274 124.176 690.682 124.048C690.09 123.92 689.546 123.736 689.05 123.496C688.554 123.256 688.154 122.928 687.85 122.512C687.562 122.08 687.418 121.512 687.418 120.808C687.418 120.168 687.594 119.592 687.946 119.08C688.298 118.568 688.826 118.16 689.53 117.856C690.234 117.536 691.114 117.376 692.17 117.376C692.954 117.376 693.738 117.488 694.522 117.712C695.322 117.936 695.97 118.232 696.466 118.6L695.914 119.56C695.386 119.16 694.794 118.872 694.138 118.696C693.482 118.52 692.818 118.432 692.146 118.432C690.93 118.432 690.034 118.656 689.458 119.104C688.898 119.552 688.618 120.112 688.618 120.784C688.618 121.312 688.762 121.736 689.05 122.056C689.354 122.36 689.754 122.6 690.25 122.776C690.746 122.936 691.29 123.072 691.882 123.184C692.474 123.28 693.066 123.392 693.658 123.52C694.25 123.648 694.794 123.832 695.29 124.072C695.786 124.296 696.178 124.616 696.466 125.032C696.77 125.432 696.922 125.976 696.922 126.664C696.922 127.352 696.73 127.952 696.346 128.464C695.978 128.976 695.426 129.376 694.69 129.664C693.954 129.952 693.05 130.096 691.978 130.096ZM703.439 130.096C702.399 130.096 701.423 129.944 700.511 129.64C699.615 129.336 698.919 128.952 698.423 128.488L698.975 127.528C699.455 127.944 700.095 128.304 700.895 128.608C701.695 128.896 702.559 129.04 703.487 129.04C704.799 129.04 705.743 128.824 706.319 128.392C706.895 127.96 707.183 127.392 707.183 126.688C707.183 126.176 707.031 125.776 706.727 125.488C706.439 125.184 706.047 124.952 705.551 124.792C705.055 124.632 704.511 124.504 703.919 124.408C703.327 124.296 702.735 124.176 702.143 124.048C701.551 123.92 701.007 123.736 700.511 123.496C700.015 123.256 699.615 122.928 699.311 122.512C699.023 122.08 698.879 121.512 698.879 120.808C698.879 120.168 699.055 119.592 699.407 119.08C699.759 118.568 700.287 118.16 700.991 117.856C701.695 117.536 702.575 117.376 703.631 117.376C704.415 117.376 705.199 117.488 705.983 117.712C706.783 117.936 707.431 118.232 707.927 118.6L707.375 119.56C706.847 119.16 706.255 118.872 705.599 118.696C704.943 118.52 704.279 118.432 703.607 118.432C702.391 118.432 701.495 118.656 700.919 119.104C700.359 119.552 700.079 120.112 700.079 120.784C700.079 121.312 700.223 121.736 700.511 122.056C700.815 122.36 701.215 122.6 701.711 122.776C702.207 122.936 702.751 123.072 703.343 123.184C703.935 123.28 704.527 123.392 705.119 123.52C705.711 123.648 706.255 123.832 706.751 124.072C707.247 124.296 707.639 124.616 707.927 125.032C708.231 125.432 708.383 125.976 708.383 126.664C708.383 127.352 708.191 127.952 707.807 128.464C707.439 128.976 706.887 129.376 706.151 129.664C705.415 129.952 704.511 130.096 703.439 130.096ZM719.628 130V127.144L719.58 126.712V122.008C719.58 120.84 719.26 119.952 718.62 119.344C717.996 118.736 717.076 118.432 715.86 118.432C714.996 118.432 714.188 118.584 713.436 118.888C712.7 119.176 712.068 119.552 711.54 120.016L710.94 119.152C711.564 118.592 712.316 118.16 713.196 117.856C714.076 117.536 714.996 117.376 715.956 117.376C717.508 117.376 718.7 117.768 719.532 118.552C720.364 119.336 720.78 120.504 720.78 122.056V130H719.628ZM715.116 130.096C714.188 130.096 713.38 129.952 712.692 129.664C712.02 129.36 711.5 128.936 711.132 128.392C710.78 127.848 710.604 127.224 710.604 126.52C710.604 125.88 710.748 125.304 711.036 124.792C711.34 124.264 711.836 123.84 712.524 123.52C713.212 123.184 714.132 123.016 715.284 123.016H719.892V123.952H715.308C714.012 123.952 713.1 124.192 712.572 124.672C712.06 125.152 711.804 125.752 711.804 126.472C711.804 127.272 712.108 127.912 712.715 128.392C713.324 128.872 714.18 129.112 715.284 129.112C716.34 129.112 717.228 128.872 717.948 128.392C718.684 127.912 719.228 127.216 719.58 126.304L719.916 127.12C719.58 128.032 719.004 128.76 718.188 129.304C717.388 129.832 716.364 130.096 715.116 130.096ZM730.932 134.752C729.796 134.752 728.716 134.576 727.692 134.224C726.668 133.872 725.836 133.384 725.196 132.76L725.844 131.848C726.468 132.424 727.212 132.872 728.076 133.192C728.956 133.512 729.9 133.672 730.908 133.672C732.588 133.672 733.82 133.28 734.604 132.496C735.404 131.712 735.804 130.48 735.804 128.8V125.32L736.044 123.448L735.852 121.576V117.472H737.004V128.656C737.004 130.752 736.492 132.288 735.468 133.264C734.46 134.256 732.948 134.752 730.932 134.752ZM730.596 129.544C729.412 129.544 728.348 129.288 727.404 128.776C726.476 128.248 725.732 127.528 725.172 126.616C724.628 125.688 724.356 124.632 724.356 123.448C724.356 122.248 724.628 121.192 725.172 120.28C725.732 119.368 726.476 118.656 727.404 118.144C728.348 117.632 729.412 117.376 730.596 117.376C731.732 117.376 732.748 117.624 733.644 118.12C734.556 118.6 735.276 119.296 735.804 120.208C736.332 121.104 736.596 122.184 736.596 123.448C736.596 124.696 736.332 125.776 735.804 126.688C735.276 127.6 734.556 128.304 733.644 128.8C732.748 129.296 731.732 129.544 730.596 129.544ZM730.692 128.464C731.7 128.464 732.588 128.256 733.356 127.84C734.124 127.408 734.724 126.816 735.156 126.064C735.604 125.296 735.828 124.424 735.828 123.448C735.828 122.456 735.604 121.584 735.156 120.832C734.724 120.08 734.124 119.496 733.356 119.08C732.588 118.664 731.7 118.456 730.692 118.456C729.716 118.456 728.836 118.664 728.052 119.08C727.284 119.496 726.676 120.08 726.228 120.832C725.796 121.584 725.58 122.456 725.58 123.448C725.58 124.424 725.796 125.296 726.228 126.064C726.676 126.816 727.284 127.408 728.052 127.84C728.836 128.256 729.716 128.464 730.692 128.464ZM747.171 130.096C745.907 130.096 744.787 129.824 743.811 129.28C742.851 128.736 742.091 127.984 741.531 127.024C740.987 126.064 740.715 124.968 740.715 123.736C740.715 122.488 740.971 121.392 741.483 120.448C742.011 119.488 742.731 118.736 743.643 118.192C744.555 117.648 745.579 117.376 746.715 117.376C747.851 117.376 748.867 117.64 749.763 118.168C750.675 118.696 751.387 119.44 751.899 120.4C752.427 121.344 752.691 122.44 752.691 123.688C752.691 123.736 752.683 123.792 752.667 123.856C752.667 123.904 752.667 123.96 752.667 124.024H741.603V123.088H752.019L751.539 123.544C751.555 122.568 751.347 121.696 750.915 120.928C750.499 120.144 749.931 119.536 749.211 119.104C748.491 118.656 747.659 118.432 746.715 118.432C745.787 118.432 744.955 118.656 744.219 119.104C743.499 119.536 742.931 120.144 742.515 120.928C742.099 121.696 741.891 122.576 741.891 123.568V123.784C741.891 124.808 742.115 125.72 742.563 126.52C743.027 127.304 743.659 127.92 744.459 128.368C745.259 128.8 746.171 129.016 747.195 129.016C747.995 129.016 748.739 128.872 749.427 128.584C750.131 128.296 750.723 127.856 751.203 127.264L751.899 128.056C751.355 128.728 750.667 129.24 749.835 129.592C749.019 129.928 748.131 130.096 747.171 130.096Z" fill="#009C41"/>
<rect x="1" y="288.33" width="498.777" height="52.9056" stroke="#009C41" stroke-width="2"/>
<path d="M13.4744 315.457H22.5704V316.537H13.4744V315.457ZM13.6184 323.425H23.9864V324.529H12.3944V307.729H23.6264V308.833H13.6184V323.425ZM43.6651 311.905C44.6731 311.905 45.5451 312.105 46.2811 312.505C47.0331 312.889 47.6171 313.481 48.0331 314.281C48.4491 315.065 48.6571 316.041 48.6571 317.209V324.529H47.4571V317.305C47.4571 315.897 47.1131 314.825 46.4251 314.089C45.7371 313.353 44.7771 312.985 43.5451 312.985C42.6011 312.985 41.7851 313.185 41.0971 313.585C40.4091 313.985 39.8811 314.545 39.5131 315.265C39.1451 315.985 38.9611 316.849 38.9611 317.857V324.529H37.7611V317.305C37.7611 315.897 37.4171 314.825 36.7291 314.089C36.0411 313.353 35.0811 312.985 33.8491 312.985C32.9051 312.985 32.0891 313.185 31.4011 313.585C30.7131 313.985 30.1851 314.545 29.8171 315.265C29.4491 315.985 29.2651 316.849 29.2651 317.857V324.529H28.0651V312.001H29.2171V315.457L29.0491 315.073C29.4171 314.097 30.0331 313.329 30.8971 312.769C31.7611 312.193 32.8011 311.905 34.0171 311.905C35.2651 311.905 36.3131 312.225 37.1611 312.865C38.0251 313.489 38.5691 314.425 38.7931 315.673L38.3851 315.505C38.7211 314.433 39.3531 313.569 40.2811 312.913C41.2091 312.241 42.3371 311.905 43.6651 311.905ZM61.508 324.529V321.673L61.46 321.241V316.537C61.46 315.369 61.14 314.481 60.5 313.873C59.876 313.265 58.956 312.961 57.74 312.961C56.876 312.961 56.068 313.113 55.316 313.417C54.58 313.705 53.948 314.081 53.42 314.545L52.82 313.681C53.444 313.121 54.196 312.689 55.076 312.385C55.956 312.065 56.876 311.905 57.836 311.905C59.388 311.905 60.58 312.297 61.412 313.081C62.244 313.865 62.66 315.033 62.66 316.585V324.529H61.508ZM56.996 324.625C56.068 324.625 55.26 324.481 54.572 324.193C53.9 323.889 53.38 323.465 53.012 322.921C52.66 322.377 52.484 321.753 52.484 321.049C52.484 320.409 52.628 319.833 52.916 319.321C53.22 318.793 53.716 318.369 54.404 318.049C55.092 317.713 56.012 317.545 57.164 317.545H61.772V318.481H57.188C55.892 318.481 54.98 318.721 54.452 319.201C53.94 319.681 53.684 320.281 53.684 321.001C53.684 321.801 53.988 322.441 54.596 322.921C55.204 323.401 56.06 323.641 57.164 323.641C58.22 323.641 59.108 323.401 59.828 322.921C60.564 322.441 61.108 321.745 61.46 320.833L61.796 321.649C61.46 322.561 60.884 323.289 60.068 323.833C59.268 324.361 58.244 324.625 56.996 324.625ZM67.6042 324.529V312.001H68.8042V324.529H67.6042ZM68.2042 308.953C67.9322 308.953 67.7002 308.857 67.5082 308.665C67.3162 308.473 67.2202 308.249 67.2202 307.993C67.2202 307.721 67.3162 307.489 67.5082 307.297C67.7002 307.105 67.9322 307.009 68.2042 307.009C68.4922 307.009 68.7242 307.105 68.9002 307.297C69.0922 307.473 69.1882 307.697 69.1882 307.969C69.1882 308.241 69.0922 308.473 68.9002 308.665C68.7242 308.857 68.4922 308.953 68.2042 308.953ZM73.862 324.529V306.721H75.062V324.529H73.862Z" fill="#009C41"/>
<path opacity="0.85" d="M1185 390C1185 378.402 1194.4 369 1206 369H1360C1371.6 369 1381 378.402 1381 390V400C1381 411.598 1371.6 421 1360 421H1206C1194.4 421 1185 411.598 1185 400V390Z" fill="#009C41"/>
<path d="M1245.34 403.24C1244.02 403.24 1242.77 403.056 1241.57 402.688C1240.37 402.304 1239.42 401.816 1238.71 401.224L1239.79 398.8C1240.46 399.328 1241.3 399.768 1242.29 400.12C1243.28 400.472 1244.3 400.648 1245.34 400.648C1246.22 400.648 1246.93 400.552 1247.47 400.36C1248.02 400.168 1248.42 399.912 1248.67 399.592C1248.93 399.256 1249.06 398.88 1249.06 398.464C1249.06 397.952 1248.87 397.544 1248.5 397.24C1248.14 396.92 1247.66 396.672 1247.06 396.496C1246.49 396.304 1245.84 396.128 1245.12 395.968C1244.42 395.808 1243.7 395.624 1242.98 395.416C1242.28 395.192 1241.63 394.912 1241.04 394.576C1240.46 394.224 1239.99 393.76 1239.62 393.184C1239.26 392.608 1239.07 391.872 1239.07 390.976C1239.07 390.064 1239.31 389.232 1239.79 388.48C1240.29 387.712 1241.03 387.104 1242.02 386.656C1243.03 386.192 1244.3 385.96 1245.84 385.96C1246.85 385.96 1247.85 386.088 1248.84 386.344C1249.83 386.6 1250.7 386.968 1251.43 387.448L1250.45 389.872C1249.7 389.424 1248.92 389.096 1248.12 388.888C1247.32 388.664 1246.55 388.552 1245.82 388.552C1244.95 388.552 1244.25 388.656 1243.7 388.864C1243.18 389.072 1242.78 389.344 1242.53 389.68C1242.29 390.016 1242.17 390.4 1242.17 390.832C1242.17 391.344 1242.34 391.76 1242.7 392.08C1243.06 392.384 1243.54 392.624 1244.11 392.8C1244.7 392.976 1245.36 393.152 1246.08 393.328C1246.8 393.488 1247.51 393.672 1248.22 393.88C1248.94 394.088 1249.58 394.36 1250.16 394.696C1250.75 395.032 1251.22 395.488 1251.58 396.064C1251.94 396.64 1252.13 397.368 1252.13 398.248C1252.13 399.144 1251.88 399.976 1251.38 400.744C1250.9 401.496 1250.16 402.104 1249.15 402.568C1248.14 403.016 1246.87 403.24 1245.34 403.24ZM1260.36 403.168C1259.27 403.168 1258.31 402.968 1257.48 402.568C1256.64 402.152 1256 401.528 1255.53 400.696C1255.07 399.848 1254.84 398.784 1254.84 397.504V390.184H1257.84V397.096C1257.84 398.248 1258.09 399.112 1258.6 399.688C1259.13 400.248 1259.88 400.528 1260.84 400.528C1261.54 400.528 1262.15 400.384 1262.66 400.096C1263.19 399.808 1263.6 399.376 1263.88 398.8C1264.19 398.224 1264.34 397.512 1264.34 396.664V390.184H1267.34V403H1264.48V399.544L1264.99 400.6C1264.56 401.432 1263.92 402.072 1263.09 402.52C1262.26 402.952 1261.35 403.168 1260.36 403.168ZM1278.37 403.168C1277.28 403.168 1276.32 402.928 1275.47 402.448C1274.62 401.968 1273.95 401.248 1273.45 400.288C1272.97 399.312 1272.73 398.08 1272.73 396.592C1272.73 395.088 1272.98 393.856 1273.48 392.896C1273.99 391.936 1274.67 391.224 1275.52 390.76C1276.38 390.28 1277.33 390.04 1278.37 390.04C1279.64 390.04 1280.75 390.312 1281.71 390.856C1282.68 391.4 1283.45 392.16 1284.01 393.136C1284.59 394.112 1284.88 395.264 1284.88 396.592C1284.88 397.92 1284.59 399.072 1284.01 400.048C1283.45 401.024 1282.68 401.792 1281.71 402.352C1280.75 402.896 1279.64 403.168 1278.37 403.168ZM1271.27 403V385.192H1274.27V393.16L1274.03 396.568L1274.12 399.976V403H1271.27ZM1278.04 400.6C1278.76 400.6 1279.4 400.44 1279.96 400.12C1280.53 399.8 1280.99 399.336 1281.32 398.728C1281.66 398.12 1281.83 397.408 1281.83 396.592C1281.83 395.76 1281.66 395.048 1281.32 394.456C1280.99 393.848 1280.53 393.384 1279.96 393.064C1279.4 392.744 1278.76 392.584 1278.04 392.584C1277.32 392.584 1276.67 392.744 1276.09 393.064C1275.52 393.384 1275.06 393.848 1274.72 394.456C1274.39 395.048 1274.22 395.76 1274.22 396.592C1274.22 397.408 1274.39 398.12 1274.72 398.728C1275.06 399.336 1275.52 399.8 1276.09 400.12C1276.67 400.44 1277.32 400.6 1278.04 400.6ZM1303.9 390.04C1304.92 390.04 1305.83 390.24 1306.61 390.64C1307.41 391.04 1308.03 391.656 1308.48 392.488C1308.93 393.304 1309.15 394.36 1309.15 395.656V403H1306.15V396.04C1306.15 394.904 1305.91 394.056 1305.41 393.496C1304.91 392.936 1304.2 392.656 1303.27 392.656C1302.62 392.656 1302.03 392.8 1301.52 393.088C1301.03 393.376 1300.63 393.8 1300.35 394.36C1300.07 394.92 1299.94 395.632 1299.94 396.496V403H1296.94V396.04C1296.94 394.904 1296.69 394.056 1296.19 393.496C1295.7 392.936 1294.99 392.656 1294.06 392.656C1293.4 392.656 1292.82 392.8 1292.31 393.088C1291.81 393.376 1291.42 393.8 1291.13 394.36C1290.86 394.92 1290.72 395.632 1290.72 396.496V403H1287.72V390.184H1290.58V393.592L1290.07 392.584C1290.51 391.752 1291.13 391.12 1291.95 390.688C1292.78 390.256 1293.72 390.04 1294.78 390.04C1295.98 390.04 1297.02 390.336 1297.9 390.928C1298.79 391.52 1299.39 392.416 1299.67 393.616L1298.5 393.208C1298.91 392.248 1299.6 391.48 1300.56 390.904C1301.52 390.328 1302.63 390.04 1303.9 390.04ZM1312.99 403V390.184H1315.99V403H1312.99ZM1314.5 388.072C1313.94 388.072 1313.48 387.896 1313.11 387.544C1312.76 387.192 1312.58 386.768 1312.58 386.272C1312.58 385.76 1312.76 385.336 1313.11 385C1313.48 384.648 1313.94 384.472 1314.5 384.472C1315.06 384.472 1315.52 384.64 1315.87 384.976C1316.24 385.296 1316.42 385.704 1316.42 386.2C1316.42 386.728 1316.24 387.176 1315.89 387.544C1315.54 387.896 1315.08 388.072 1314.5 388.072ZM1324.75 403.168C1323.34 403.168 1322.25 402.808 1321.49 402.088C1320.72 401.352 1320.33 400.272 1320.33 398.848V387.352H1323.33V398.776C1323.33 399.384 1323.49 399.856 1323.79 400.192C1324.11 400.528 1324.55 400.696 1325.11 400.696C1325.78 400.696 1326.34 400.52 1326.79 400.168L1327.63 402.304C1327.28 402.592 1326.85 402.808 1326.33 402.952C1325.82 403.096 1325.29 403.168 1324.75 403.168ZM1318.22 392.68V390.28H1326.77V392.68H1318.22Z" fill="white"/>
</svg>
